<?xml version="1.0" standalone="no"?>
<!DOCTYPE svg PUBLIC "-//W3C//DTD SVG 20010904//EN"
 "http://www.w3.org/TR/2001/REC-SVG-20010904/DTD/svg10.dtd">
<svg version="1.0" xmlns="http://www.w3.org/2000/svg"
 width="1024.000000pt" height="1024.000000pt" viewBox="0 0 1024.000000 1024.000000"
 preserveAspectRatio="xMidYMid meet">

<g transform="translate(0.000000,1024.000000) scale(0.100000,-0.100000)"
fill="#000000" stroke="none">
<path d="M2940 6705 l0 -1615 975 0 975 0 0 -580 0 -580 715 0 715 0 0 1125 0
1125 -975 0 -975 0 0 390 0 390 1460 0 1460 0 0 680 0 680 -2175 0 -2175 0 0
-1615z"/>
<path d="M4920 2985 l0 -675 675 0 675 0 0 675 0 675 -675 0 -675 0 0 -675z"/>
</g>
</svg>
